<?xml version="1.0" encoding="UTF-8"?>
<svg id="Layer_2" data-name="Layer 2" xmlns="http://www.w3.org/2000/svg" xmlns:xlink="http://www.w3.org/1999/xlink" viewBox="0 0 1515.1 758.39">
  <defs>
    <style>
      .cls-1 {
        fill: url(#linear-gradient);
      }

      .cls-1, .cls-2 {
        stroke-width: 0px;
      }

      .cls-2 {
        fill: url(#linear-gradient-2);
      }
    </style>
    <linearGradient id="linear-gradient" x1="985.67" y1="84.77" x2="328.64" y2="932.79" gradientUnits="userSpaceOnUse">
      <stop offset="0" stop-color="#e5102f"/>
      <stop offset="1" stop-color="#e5102f" stop-opacity="0"/>
    </linearGradient>
    <linearGradient id="linear-gradient-2" x1="971.15" y1="380.74" x2="2486.21" y2="391.71" gradientUnits="userSpaceOnUse">
      <stop offset=".35" stop-color="#fff"/>
      <stop offset="1" stop-color="#fff" stop-opacity="0"/>
    </linearGradient>
  </defs>
  <g id="Layer_1-2" data-name="Layer 1">
    <g>
      <polygon class="cls-1" points="968.06 758.39 219.82 758.39 547.04 0 1295.28 0 968.06 758.39"/>
      <path class="cls-2" d="m187.07,243.53h89.32c24.71,31.47,41.57,62.92,50.56,94.38,8.98,31.47,13.48,70.78,13.48,117.97v218.25h-112.07v-226.67c0-53.36-7.31-91.85-21.91-115.44h-94.38v342.12H0V243.53h87.64l15.17,30.34c12.35-11.23,24.02-19.09,34.97-23.59,10.95-4.49,27.39-6.74,49.29-6.74Zm222.46-159.26h111.23v113.76h-111.23v-113.76Zm0,589.86V243.53h111.23v430.6h-111.23Zm380.04-430.6h80.05c24.71,31.47,41.57,62.92,50.56,94.38,8.98,31.47,13.48,70.78,13.48,117.97v218.25h-112.07v-226.67c0-53.36-7.31-91.85-21.91-115.44h-94.38v342.12h-112.07V84.27h112.07v189.6c12.35-11.23,24.02-19.09,34.97-23.59,10.96-4.49,27.39-6.74,49.29-6.74Zm469.36,430.6h-183.7c-56.18-52.24-84.27-123.58-84.27-214.03,0-45.5,6.32-85.11,18.96-118.81,12.64-33.71,32.72-66.28,60.25-97.75h197.18c29.21,33.71,49.15,66.44,59.83,98.17,10.67,31.74,16.01,71.2,16.01,118.39,0,90.46-28.1,161.79-84.27,214.03Zm-123.87-88.48h64.04c20.22-39.32,30.34-83.98,30.34-133.98s-10.4-89.88-31.18-119.66h-63.2c-20.22,28.65-30.34,69.24-30.34,121.76s10.11,96.48,30.34,131.88Zm268.81-501.38h111.23v113.76h-111.23v-113.76Zm0,589.86V243.53h111.23v430.6h-111.23Z"/>
    </g>
  </g>
</svg>